<?xml version="1.0" encoding="UTF-8"?>
<svg id="Layer_1" data-name="Layer 1" xmlns="http://www.w3.org/2000/svg" viewBox="0 0 876.84 502.88">
  <defs>
    <style>
      .cls-1 {
        fill: #333;
        stroke-width: 0px;
      }
    </style>
  </defs>
  <path class="cls-1" d="M876.84,357.32c0,60.87-52.85,110.37-117.82,110.37-15.53,0-30.69-2.85-45.13-8.5-55.52,27.41-146.74,43.69-245.47,43.69-89.84,0-173.43-13.38-230.1-36.76-15.13,3.39-30.19,5.1-44.81,5.1C86.8,471.22,0,390.08,0,290.35S86.8,109.5,193.51,109.5c4.06,0,8.14.13,12.36.39C241.34,42.92,314.81,0,394.97,0c50.25,0,98.65,16.8,136.95,47.42,18.24-6.64,37.41-10,57.07-10,87.13,0,158.01,66.3,158.01,147.8,0,22.82-5.51,44.83-16.12,64.92,9.19-2.11,18.65-3.2,28.14-3.2,64.97,0,117.82,49.52,117.82,110.38Z"/>
</svg>