<?xml version="1.0" encoding="UTF-8"?>
<svg xmlns="http://www.w3.org/2000/svg" viewBox="0 0 1816.41 2907.92">
  <defs>
    <style>
      .cls-1, .cls-2, .cls-3, .cls-4, .cls-5, .cls-6, .cls-7, .cls-8 {
        mix-blend-mode: multiply;
      }

      .cls-1, .cls-7 {
        opacity: .4;
      }

      .cls-9 {
        fill: #b05026;
      }

      .cls-9, .cls-2, .cls-3, .cls-4, .cls-5, .cls-6, .cls-10, .cls-11, .cls-12, .cls-13, .cls-7, .cls-14, .cls-15, .cls-16, .cls-17, .cls-18, .cls-8, .cls-19, .cls-20, .cls-21 {
        stroke-width: 0px;
      }

      .cls-2 {
        fill: #6b4329;
      }

      .cls-2, .cls-5, .cls-6, .cls-8 {
        opacity: .5;
      }

      .cls-3 {
        fill: #f7e9c1;
        opacity: .8;
      }

      .cls-4 {
        fill: #88191f;
      }

      .cls-5, .cls-12 {
        fill: #737783;
      }

      .cls-6, .cls-7, .cls-21 {
        fill: #c97e49;
      }

      .cls-22 {
        isolation: isolate;
      }

      .cls-23 {
        opacity: .2;
      }

      .cls-10 {
        fill: #702e14;
      }

      .cls-11 {
        fill: #858c93;
      }

      .cls-13 {
        fill: #fff;
      }

      .cls-14 {
        fill: #3a211b;
      }

      .cls-15 {
        fill: #6f1822;
      }

      .cls-16 {
        fill: #db8f55;
      }

      .cls-17 {
        fill: #090a0a;
      }

      .cls-18 {
        fill: #943e20;
      }

      .cls-8 {
        fill: #7f3339;
      }

      .cls-19 {
        fill: #db1f26;
      }

      .cls-20 {
        fill: #a8483f;
      }

      .cls-21 {
        mix-blend-mode: screen;
        opacity: .6;
      }
    </style>
  </defs>
  <g class="cls-22">
    <g id="Layer_1" data-name="Layer 1">
      <g>
        <g>
          <g>
            <path class="cls-16" d="M1251.62,2544.4s0,40.92,117.38,49.15c117.42,8.18,312.65-80.55,323.55-326.29,10.93-245.71-143.33-383.58-165.16-408.19,0,0,12.18-8.34,44.47,11.48,0,0-14.27-26.48-27.11-33.88,0,0,20.3,4.65,30.95,14.07,0,0-2.37-10.34-11.87-15.54,0,0,24.14,2.16,80.38,48.95,56.24,46.84,144.65,159.31,165.41,295.66,23.48,153.86-18.55,297.24-55.46,365.17-46.81,86.11-194.14,321.84-483.68,154.28,0,0-42.97-84.94-18.86-154.86Z"/>
            <path class="cls-7" d="M1251.62,2544.4s0,40.92,117.38,49.15c117.42,8.18,312.65-80.55,323.55-326.29,10.93-245.71-143.33-383.58-165.16-408.19,0,0,12.18-8.34,44.47,11.48,0,0-14.27-26.48-27.11-33.88,0,0,20.3,4.65,30.95,14.07,0,0-1.31-5.4-5.56-10.35,46.31,49.06,96.87,94.54,132.53,152.23-12.3-10.73-25.14-20.75-40.19-27.42-1.87-.86-4.56,1.03-3.15,3.12,57.96,86.9,87.25,186.02,96.8,289.09-3.31-8.68-7.24-17.1-12.68-24.84-1.31-1.86-4.21-1.2-4.31,1.17-2.31,42.33-2.75,85.53-13.8,126.78-11.12,41.53-29.95,81.75-52.15,118.49-10.15,16.71-20.49,33.4-34.22,47.42-12.02,12.29-25.04,23.39-38.1,34.54-23.7,20.23-48.62,41.02-63.27,69.14-.81,1.59.19,3.39,1.97,3.48,39.22,2.03,68.01-26.5,101.89-41.13-10.52,21.94-29.54,39.03-36.32,62.88-.44,1.61,1.19,3.4,2.87,2.81,11.65-4.06,23.08-8.79,33.98-14.49,63.2-32.99,107.39-89.93,136.81-153.62-7.46,20.1-15.71,38.55-24.64,54.95-46.81,86.11-194.14,321.84-483.68,154.28,0,0-42.97-84.94-18.86-154.86Z"/>
            <path class="cls-7" d="M1251.62,2544.4s0,40.92,117.38,49.15c117.42,8.18,312.65-80.55,323.55-326.29,9.52-213.24-105.42-345.22-150.2-392.43,48.31,39.61,88.97,88.95,118.73,143.77,30.92,56.99,51.37,120.29,53.77,185.4,2.68,72.76-14.37,144.47-43.06,211.07-24.73,57.6-61.42,110.19-106.98,153.26-38.38,36.35-85.72,52.63-128.97,80.96-8.43,5.48-17.92,12.69-24.2,20.41-.84,1.05-1.06,3.01.44,3.65,35.35,15.08,74.6,7.54,111.42,2.56-11.77,14.04-29.17,22.42-38.25,38.97-.81,1.42.16,3.59,1.97,3.48,7.53-.53,15.02-1.23,22.42-2.2,125.5-15.86,205.82-102.99,261.81-207.54-5.43,12.96-11.18,25.17-17.27,36.36-46.81,86.11-194.14,321.84-483.68,154.28,0,0-42.97-84.94-18.86-154.86Z"/>
          </g>
          <path class="cls-16" d="M57.71,2852.8c24.26,24.86,59.8,4.89,59.8,4.89,29.17,16.5,50.25,3.81,50.25,3.81,13.3,16.46,68.17,28.89,125.41-2.62,57.21-31.48,47.65-86.95,47.65-86.95,21.92,28.9,46.59,5.03,46.59,5.03,41.69,37.36,74.76,11.54,74.76,11.54,50.46,23.11,74.13-1.56,74.13-1.56,36.91,14.21,58.74,2.64,58.74,2.64,0,0-19.64,48.23,13.02,84.06,32.66,35.82,83.25,7.31,83.25,7.31,32.41,34.68,97.9,14.61,97.9,14.61,16.18,10.07,65.48,6.93,87.81-18.72,22.33-25.65,2.31-82.19,2.31-82.19,10.8,4.64,55.48-3.08,85.52-.75,30.04,2.28,93.24,13.88,93.24,13.88,33.85,83.17,107.05,47.37,107.05,47.37,45.09,40.78,101.36,11.55,101.36,11.55,62.77,13.05,85.63,2.7,97.84-34.69,15.61-48-29.92-125.56-30.29-127.97-9.62-63.3,72.23-154.03,126.59-307.68,54.3-153.72-3.5-255.42-141.02-435.72-137.49-180.26-198.76-287.74-241.54-398.69-42.75-110.92,18.02-128.61.66-225.68-17.3-97.07-108.36-254.14-171.66-354.43-57.14-90.51-66.57-166.96-66.57-166.96,0,0-15.93,23.58-100.36,78.76-84.35,55.21-224.37,16.1-224.37,16.1-92.03-21.25-192.86-124.77-192.86-124.77-2.87,57.43-44.53,122.89-124.22,274.32-79.79,151.36-99.4,213.78-132.9,448.38-33.54,234.59-15.02,374.43,2.31,486.54,17.33,112.09,107.45,547.76,121.32,627.51,13.87,79.71-19.64,85.11-19.64,85.11-38.88-8.46-50.87,21.95-50.87,21.95-41.22-17.72-62.77,3.84-70.11,20.8-7.31,16.96-15.43,78.4,8.9,103.24ZM339.13,2529.19c.25-1.16,1.75-2.03,2.87-1.61,9.65,3.61,16.18,11.01,23.61,17.81,13.55,12.3,29.07,22.67,43.84,33.48,14.08,10.34,28.32,20.39,42.78,30.26,10.52,7.2,22.83,11.96,31.76,21.31,1.12,1.15.81,3.54-1,3.84-9.49,1.58-19.64,7.28-28.29.77-5.62-4.25-9.4-9.7-15.55-13.35-9.9-5.92-21.11-7.96-32.45-6.98-7.56.7-14.33,3.43-20.33,7.96-3.9,2.91-7.12,5.5-12.02,5.95-2.94.22-6.62-4.45-8.31-6.18-6.81-7.07-12.43-10.85-22.95-10.01-1.34.12-2.16-1.14-2.28-2.31-1.65-13.72.19-27.46-.06-41.22-.19-10.96-1.47-21.56-.25-32.32-.66-.19-1.16-.69-1.37-1.55-.47-2.76-.47-3.11,0-5.85ZM316.71,1812.1c.78.11,1.53.59,1.81,1.58,11.37,39.28,29.01,76.26,43.94,114.21,7.4,18.97,14.55,38.07,21.98,56.99,6.37,16.07,14.11,31.46,15.55,48.93.16,1.69-2.09,3-3.47,2.04-8.37-6.12-16.49-12.51-25.2-18.1-9.27-5.95-19.21-8.62-29.39-12.26-17.3-6.15-13.62-26.34-14.77-41.39-2.06-25.37-4.31-50.71-7.21-75.99-1.59-13.07-3.53-26.09-5.15-39.13-1.4-11.37.53-24.4-2.4-35.32-.69-2.75,3.25-3.97,4.31-1.58Z"/>
          <path class="cls-7" d="M57.71,2852.8c24.26,24.86,59.8,4.89,59.8,4.89,29.17,16.5,50.25,3.81,50.25,3.81,13.3,16.46,68.17,28.89,125.41-2.62,57.21-31.48,47.65-86.95,47.65-86.95,21.92,28.9,46.59,5.03,46.59,5.03,41.69,37.36,74.76,11.54,74.76,11.54,50.46,23.11,74.13-1.56,74.13-1.56,36.91,14.21,58.74,2.64,58.74,2.64,0,0-19.64,48.23,13.02,84.06,32.66,35.82,83.25,7.31,83.25,7.31,32.41,34.68,97.9,14.61,97.9,14.61,16.18,10.07,65.48,6.93,87.81-18.72,22.33-25.65,2.31-82.19,2.31-82.19,10.8,4.64,55.48-3.08,85.52-.75,30.04,2.28,93.24,13.88,93.24,13.88,33.85,83.17,107.05,47.37,107.05,47.37,45.09,40.78,101.36,11.55,101.36,11.55,45.12,9.39,69.54,6.6,84.28-9.55-2.4.9-4.9,1.58-7.65,1.83-12.24,1.05-29.85-5.12-33.26-18.22-2.22-8.48,1.56-19.94,2.78-28.37,2.4-17.33,4.37-34.34,3-51.82-.87-11.65-4.59-21.33-8.28-32.18-1.59-4.68-3.72-10.68-1.22-15.36,5.9-10.99,26.89,6.72,31.82,10.82,4.12,3.43,7.71,7.48,11.09,11.76-7.71-17.92-14.86-30.6-15.02-31.55-9.62-63.3,72.23-154.03,126.59-307.68,54.3-153.72-3.5-255.42-141.02-435.72-137.49-180.26-198.76-287.74-241.54-398.69-15.24-39.52-17.3-67.17-14.46-90.83-4.28,16.77-8.84,33.44-13.3,49.96-23.05,85.05-41.06,171.31-63.7,256.44-42.44,159.77-112.6,309.96-159.22,468.35-15.52,52.77-27.76,106.5-35.57,160.96-3.53,24.48-6.12,49.07-8.74,73.67.34,76.65,7.78,153.12,18.55,228.99.28,2.05-1.22,4.03-3.47,3.44-20.61-5.46-36.54-20.66-51.34-35.4-2.47,7.34-4.5,14.85-6.87,22.23-.69,2.12-4,2.98-5.12.66-7.28-15.05-7.53-31.62-10.09-47.81-9.27,15.5-22.51,27.57-40,33.69-1.69.58-3.62-.97-3.56-2.7,4.4-100.86,22.83-200.54,26.45-301.47,1.62-44.83.12-89.65,3-134.48,1.25-19.45,3.5-38.78,6.74-57.91,1.81-65.8,10.18-131.01,28.07-193.14-9.06,11.66-17.96,23.48-26.79,35.29-1.9,2.51-5.81,1.09-5.15-2.16,12.71-60.92,35.82-117.98,67.86-171.25,10.09-16.78,20.95-33.07,32.23-49.07-15.52,9.71-31.45,18.86-44.94,29.65-2.44,1.94-5.97-.44-4.37-3.4,36.13-68.95,86.47-129.69,117.38-201.35-16.8,17.25-35.44,32.37-57.52,42.61-2.62,1.23-5-1.22-3.84-3.82,27.54-61.94,61.24-120.82,91.86-181.23,26.79-52.92,55.93-107.89,55.59-168.57-.56-94.38-59.08-199.64-148.38-237,26.57,36.26,54.9,70.95,70.54,113.75.97,2.64-2.84,4.75-4.68,2.72-17.99-19.97-40.82-37.79-68.11-40.82,18.42,26.75,36.1,54.4,45.47,85.75,9.43,31.48,5.65,64.17-4.62,94.9-24.89,74.38-60.96,144.85-108.7,207.19-40.44,52.77-94.18,103.42-160.48,119.9-55.27,13.74-101.99-15.22-137.74-54.82-42.47-47.03-71.01-107.05-90.4-166.88-3.68-11.26-7.12-22.95-10.21-34.87-4.65,34.6-7.37,69.39-4.22,104.39.28,3.01-3.78,3.53-5.22,1.42-28.67-42.66-44.31-95.63-41.25-147.22-5.87,17.74-5.59,36.69-1.28,55.36.69,2.97-3.75,5.17-5.12,2.16-.09-.22-.19-.45-.28-.67v.02-.03c-26.64-60.02-21.3-131.83-.69-192.78,11.24-33.29,29.14-65.62,53.4-91.18-4.71.97-9.46,1.94-14.24,2.84-2.81.55-4.53-2.5-2.72-4.68,23.51-28.46,47-55.07,77.76-76.01,14.02-9.51,29.32-18.57,45.72-23.14,14.11-3.92,28.6.42,42.31,3.79,81.75,20.16,170.13,5.84,250.35-14.47,19.99-5.04,39.69-10.57,58.68-18.67,8.84-3.78,18.64-8.45,25.26-15.49,4.81-5.09,8.74-10.41,14.9-13.96,22.8-13.13,52.71,20.91,66.41,34.38,39.44,38.74,69.85,86.78,97.21,135.81-32.23-62.19-69.54-124.38-100.33-173.14-57.14-90.51-66.57-166.96-66.57-166.96,0,0-15.93,23.58-100.36,78.76-84.35,55.21-224.37,16.1-224.37,16.1-92.03-21.25-192.86-124.77-192.86-124.77-2.87,57.43-44.53,122.89-124.22,274.32-79.79,151.36-99.4,213.78-132.9,448.38-33.54,234.59-15.02,374.43,2.31,486.54,17.33,112.09,107.45,547.76,121.32,627.51,13.87,79.71-19.64,85.11-19.64,85.11-38.88-8.46-50.87,21.95-50.87,21.95-41.22-17.72-62.77,3.84-70.11,20.8-7.31,16.96-15.43,78.4,8.9,103.24ZM1188.26,2720.46c6.75-18.49,18.74-35.77,37.91-42.52,10.59-3.73,20.42-1.25,28.85,4.18,1-.56,2.22-.61,3.25.42,4.65,4.65,8.93,9.71,12.77,15.05,1.25,1.69,2.44,3.4,3.56,5.12.03.08.03.16.06.22,22.36,34.55,27.7,79.82,6.84,117.1-18.36,32.77-68.79,38.81-91.4,7.73-21.05-28.93-13.18-76.27-1.84-107.31ZM1083.05,2729.52c1.41-16.13,11.18-31.59,26.48-37.43,3.37-1.3,6.65-1.75,9.77-1.59.41-.84,1.16-1.44,2.44-1.3,12.8,1.44,20.33,9.13,24.7,19.52,1.44,2.04,2.75,4.12,3.87,6.15.81,1.47.19,2.81-.84,3.58,4.03,18.14,1.65,40.49-.03,54.45-2.4,19.66-16.58,70.73-45.44,44.53-10.68-9.71-14.68-27.04-17.49-40.49-3.22-15.35-4.9-31.77-3.47-47.42ZM1047.7,2187.18c-.66-41.64,7.21-81.21,14.36-121.96,5.93-33.6,11.74-67.43,24.79-99.16,9.43-23,24.26-48.51,49.21-56.63,22.77-7.4,47.53,5.59,65.39,18.6,18.86,13.72,35.26,32.13,47.03,52.38,25.17,27.11,50.09,54.38,70.07,85.7,11.43,17.91,21.61,37.13,31.01,56.13,8.21,16.57,15.43,34.38,16.02,53.06.09,2.64-3.03,3.48-4.78,1.98-17.33-14.68-31.23-34.18-51.71-44.28,42.56,59.25,71.95,125.38,76.54,199.1,5.28,84.74-33.79,160.79-69.01,235.17-1.41,3.01-5.78.81-5.12-2.16,2.19-9.9,4.06-19.78,5.4-29.74-13.9,36.08-38.5,72.12-73.88,86.48-53.71,21.78-74.04-49.54-83.72-86.59-4.75-18.06-9.4-36.11-15.58-53.74-7.59-21.5-19.42-40.49-30.45-60.28-19.36-34.71-36.44-70.75-47.93-108.89-12.08-40.17-16.99-83.33-17.64-125.17ZM840.48,2826.69c1.87-17.58-1.84-35.62-2.78-53.4-.09-1.86,1.84-3.17,3.56-2.72,32.94,8.82,51.81,60.39,30.29,87.64-5.5,6.96-27.35,26.75-35.44,11.16-6.53-12.63.19-28.95,4.37-42.69ZM732.19,2743.94c21.89-24.67,45.72-11.2,61.99,10.62,17.61,18.83,25.11,47.36,20.67,72.45-6.65,37.85-47.34,43.66-76.54,26.08-36.57-22.02-31.41-80.66-6.12-109.14ZM648.81,2737.76c29.23-2.31,25.48,39.89,19.99,60.31-4.15,15.36-22.67,49.31-42.84,32.54-22.76-18.89-9.65-111.36,22.86-92.85ZM482.18,2665.37c.69,0,1.22.27,1.65.63,48.18-15.05,85.31,100.91,21.67,108.67-50.87,6.2-80.13-110.34-23.33-109.3ZM405.68,2643.76c1.19.97,1.12,2.22.47,3.18,8.49,11.46,11.93,27.07,12.9,41.02.94,12.82-2.81,24.97-13.58,32.66-6.18,4.42-12.87,5.29-18.92.27-20.17-16.82-13.77-103.74,19.14-77.13ZM339.13,2529.19c.25-1.16,1.75-2.03,2.87-1.61,9.65,3.61,16.18,11.01,23.61,17.81,13.55,12.3,29.07,22.67,43.84,33.48,14.08,10.34,28.32,20.39,42.78,30.26,10.52,7.2,22.83,11.96,31.76,21.31,1.12,1.15.81,3.54-1,3.84-9.49,1.58-19.64,7.28-28.29.77-5.62-4.25-9.4-9.7-15.55-13.35-9.9-5.92-21.11-7.96-32.45-6.98-7.56.7-14.33,3.43-20.33,7.96-3.9,2.91-7.12,5.5-12.02,5.95-2.94.22-6.62-4.45-8.31-6.18-6.81-7.07-12.43-10.85-22.95-10.01-1.34.12-2.16-1.14-2.28-2.31-1.65-13.72.19-27.46-.06-41.22-.19-10.96-1.47-21.56-.25-32.32-.66-.19-1.16-.69-1.37-1.55-.47-2.76-.47-3.11,0-5.85ZM327.17,1964.12c-2.06-25.37-4.31-50.71-7.21-75.99-1.59-13.07-3.53-26.09-5.15-39.13-1.4-11.37.53-24.4-2.4-35.32-.69-2.75,3.25-3.97,4.31-1.58.78.11,1.53.59,1.81,1.58,11.37,39.28,29.01,76.26,43.94,114.21,7.4,18.97,14.55,38.07,21.98,56.99,6.37,16.07,14.11,31.46,15.55,48.93.16,1.69-2.09,3-3.47,2.04-8.18-5.98-16.15-12.19-24.64-17.69,39.41,61.27,59.33,132.37,50.03,205.71-.31,2.4-3.9,4.26-5.22,1.42-4.62-9.91-8.87-19.99-13.43-29.9,11.46,35.1,15.24,72.67,16.61,109.7.5,13.65.59,27.31.63,40.97,0,2.09-1.22,19.64.78,20.05,4.18.87,8.12,2.55,12.02,4.22,19.42,8.32,35.19,25.33,48.59,41.09,27.07,31.87,49.62,68.89,70.14,105.25,18.64,33.09,45.09,79.08,35.16,118.6-.5,1.87-2.53,2.4-4.12,1.67-52.56-24.45-93.49-70.31-130.53-113.57-38.07-44.48-67.33-90.68-81.5-148.14-7.43-30.21-9.21-61.21-11.52-92.12-2.75-36.83-4.93-73.73-6.34-110.65-1.25-33.21-1.97-66.5-.5-99.72.94-20.77,2.44-42.56-.19-63.56-3.5-1.22-6.99-2.4-10.56-3.67-17.3-6.15-13.62-26.34-14.77-41.39ZM224.47,2515.36c-18.74-62.38-32.57-126.25-47.75-189.55-38.07-158.73-81.19-317.54-95.49-480.62-13.55-154.61-1.91-316.49,66.36-458.03.94-1.92,3.87-1.73,4.87,0,32.07,56.5,47.25,122.21,53.62,186.41.19,2.01-2.56,3.64-4.22,2.42-14.08-10.41-26.23-22.67-37.28-35.99,14.27,53.27,42.56,101.79,74.76,147.1,1.41,1.95-.94,4.92-3.15,4.11-23.3-8.51-42.06-25.14-61.08-40.78,31.98,51.46,62.08,104.88,78.54,163.47.66,2.34-2.03,4.43-4.12,3.17-13.52-8.18-25.01-18.83-36.47-29.54,71.95,113.28,80.88,256.86,87.87,387.42,4.5,84.22,12.43,168.25,15.99,252.5,1.5,35.21,1.56,70.43,2.94,105.64,1.19,29.26,1.78,59.63-6.43,88.04-2.66,9.18-6.93,17.68-12.84,25.18-.75.95-2.43,1.05-3.4.44-42.34-26.54-59.24-86.53-72.7-131.41ZM202.29,2781.01c.78-17.91,3.34-37.47,8.99-54.49,3.59-10.84,15.77-20.56,26.64-11.82.13.08.22.2.34.3,1.19-.63,2.84-.58,3.87.81,16.93,22.95,33.79,55.05,30.23,84.46-3.06,25.5-42.75,45.17-61.58,23.75-9.65-10.95-9.09-29.46-8.49-43ZM130.5,2745.53c8.4-12.63,22.27-19.21,28.7-10.1.66.12,1.25.56,1.62,1.39,7.56,16.49-1.91,42.31-8.52,57.52-4.5,10.37-23.42,32.09-31.04,11.15-6.68-18.3-1.41-44,9.24-59.96ZM71.76,2756.39c2.65-3.25,6.62-6.65,11.12-5.67,1.5.34,2.56,1.26,3.31,2.45.16.16.25.37.34.55,1.59,2.91,1.75,7.15,1.81,9.78.03.55-.16,1-.38,1.37-.16,10.23-3.28,21.73-6.9,29.54-2.09,4.48-5.22,9.46-10.74,9.38-5.28-.06-9.06-5.81-10.43-10.24-3.78-12.22,4.37-27.98,11.87-37.16Z"/>
          <g>
            <path class="cls-9" d="M948.99,2343.22c4.31,34.29,8.4,70.71,20.83,103.16,6.21,15.96,12.71,32.48,22.92,46.34,7.65,10.35,13.9,21.97,22.95,31.16,2.03,2.06-12.4-26.78-19.99-38.32-9.77-14.82-16.77-33.13-22.05-50.12-10.18-32.57-13.99-67.81-18.14-101.58-8.09-65.36-10.8-134.23,3.09-199.04,14.11-65.41,27.57-134.09,65.2-190.64,17.99-27.11,35.6-58.05,70.92-63.31,25.67-3.86,46.97,6.49,67.83,19.06,5.87,4.58,11.62,9.4,17.42,14.08,12.62,10.06,25.39,20.44,36.91,31.76,24.55,24.03,47.15,49.98,68.48,76.91,22.55,28.39,41.5,57.9,55.9,91.17,7.18,16.61,15.74,33.38,20.39,50.92,2.34,8.92,4.44,17.86,6.78,26.78-7.53-5.4-29.23-22.17-32.01-25.87.63,1.7,1.16,3.37,1.75,5.09.31.84,18.86,36.27,21.76,44.06,9.15,24.98,18.58,50.28,24.58,76.22,5.65,24.87,8.62,50.79,8.81,76.32.16,25.33-5.28,47.31-11.83,71.49-6.87,25.06-17.74,48.87-25.7,73.54-7.31,22.45-17.99,43.87-24.64,66.47-6.71,22.83-10.84,45.19-14.46,68.7-1.84,12.12-3,23.89-1.72,35.72-14.24-8.74-32.48-13.61-43.31-1.3-.87-1-1.72-2.09-2.62-3.09-7.93-8.28-17.99-17.32-29.35-20.5-11.08-3.09-22.27-6.39-33.63-2.76-9.9,3.11-18.24,10.24-24.29,18.6-3.93,5.42-9.59,13.99-14.08,28.6-9.06-27.32-46.44-42.05-73.17-33.59,1.97-11.01,3.31-22.08,3.59-33.07.63-24.4-3.68-51.26-9.62-74.98-3.09-12.29-5.09-24.81-9.03-36.93-3.93-12.38-9.27-24.04-14.68-35.82-11.24-24.64-23.23-49.39-33.26-74.49-9.77-24.34-22.02-48.01-28.7-73.52-7.56-29.04-9.87-60.07-8.43-89.98,1.31-27.26,3.06-54.58,5.43-81.75,2.44-26.9,9.46-52.45,15.08-78.8.38-1.7-2.4-2.5-2.94-.83-7.59,24.44-15.11,48.95-17.64,74.49-2.72,27.07-4.9,54.3-6.43,81.47-3.03,54.71,6,105.52,29.6,155.03,11.12,23.22,20.3,47.43,30.79,70.92,11.55,25.92,23.92,50.78,29.7,78.8,5.15,25.03,12.49,52.13,12.34,77.82-.03,15.57-1.41,30.32-4.81,45.45-13.61,6.93-24.92,17.35-31.01,31.82-7.65,18.27-8.43,36.6-9.27,56.13-.81,18.38,6.43,41.67,14.24,58.11,7.9,16.74,18.43,28.82,33.94,38.96,13.33,8.7,31.94,10.6,47.15,7.4,8.46-1.81,20.48-3.89,26.26-11.13,23.61,31.63,67.83,32.8,98.12,12.04,24.7,13.43,57.65,15.1,81.35-1.61,25.57-17.99,30.1-54.12,24.61-82.88-6.09-31.79-18.99-62-40.69-86.3-2.5-2.81-5.87-5.74-9.65-8.6-1.03-18.11,2.94-35.27,5.56-53.49,3.72-25.65,10.55-50.15,20.61-74.06,18.74-44.5,34.76-91.2,48.5-137.54,6.4-21.73,7.06-45.58,5.59-68.09-1.5-23.22-4.09-46.29-10.15-68.81-6.65-24.64-15.05-49.03-24.79-72.64-2.9-7.09-6.31-13.88-10.06-20.47,5.46,3.79,10.99,7.67,16.58,11.66,3.25,2.31,6.78-.81,5.81-4.36-3.87-13.66-6.09-28.1-10.9-41.49-6.15-17.21-13.68-33.68-20.52-50.57-13.3-32.45-33.47-61.88-55.33-89.11-21.05-26.28-43.09-52.1-67.45-75.44-12.52-11.99-26.29-23.06-40.16-33.46-6.99-5.23-13.74-11.1-21.14-15.63-1.62-1-3.31-1.91-5-2.75-.59-.41-1.09-.73-1.69-1.12-22.83-15.55-52.59-24.44-79.41-12.38-29.35,13.21-44.34,39.5-61.55,64.95-37.63,55.65-51.4,126.63-64.7,191.35-14.15,68.83-10.12,140.41-1.37,209.64ZM1165.96,2707.31c-6.4,17.25-10.52,35.18-11.77,54.1-1.03,16.28-1.22,32.87-.16,49.17.84,12.97,1.75,24.84,7.9,36.14-6.62,11.3-32.72,13.69-43.5,11.04-13.08-3.18-24.04-8.27-34.04-17.49-11.15-10.23-18.42-25.09-22.42-39.63-4.09-14.79-8.4-28.65-7.68-44.14.31-7.18.84-14.43,1.75-21.56,1.56-12.52,4.93-24.67,11.52-35.54,2.84-4.71,6.28-9.18,10.52-12.76.53-.5,1.16-.92,1.75-1.39,6.81-5.03,15.11-7.64,23.3-9.43,12.37-2.7,25.26.53,36.6,5.68,11.33,5.18,20.95,14.33,26.23,25.79ZM1277.32,2704.7c12.9,20.94,16.24,45.44,16.24,69.64.03,22.58-2.59,46.37-14.33,66.2-13.65,23.11-44.31,37.19-70.76,30.81-26.76-6.51-43.56-25.44-45.62-52.9-2.75-36.57-1.06-72.49,9.02-107,0,0,.06-.06.06-.12.03-.16.09-.31.12-.47,1.19-4,2.47-8.01,3.87-11.98,8.31-20.23,25.01-40.19,47.81-35.94,25.48,4.76,40.5,20.48,53.59,41.77ZM1320.35,2695.21c1.37,1.26,2.47,2.73,3.75,4.04,4.93,4.9,9.12,10.01,12.12,14.38,14.77,21.5,24.76,47.65,28.42,73.45,3.68,26.23-.87,62.64-28.14,74.96-12.18,5.43-26.23,8.62-39.47,6.64-9.09-1.36-17.42-4.32-26.04-6.92,7.87-6.62,14.46-14.82,18.99-24.56,12.09-25.82,13.99-56.76,10.65-84.78-2.94-24.45-10.99-48.82-26.92-68.03-.12-.16,9.12-4.01,10.06-4.22,3.75-.86,7.81-.62,11.49.39,9.18,2.48,18.27,8.21,25.11,14.65Z"/>
            <path class="cls-9" d="M842.89,1488.57c19.49-41.09,37.57-87.94,54.06-130.2,10.3-26.48,12.76-51.31,1.37-77.57-9.15-21.13-23.64-38.71-36.85-57.29-3.34-4.65,1.53-12.01,7.15-9.15,18.96,9.59,39.25,21.1,55.05,36.43-14.24-42.63-45.55-85.24-78.28-112.29-1.31-1.09.22-3.09,1.65-2.12,43,30.46,79.87,82.08,91.83,133.78,1.15,4.93-5.97,7.1-8.74,3.53-11.3-14.69-26.82-26.23-43.12-35.87,17.77,24.55,34.37,51.81,31.44,82.35-4.5,45.78-28.41,93.4-48.46,134.26-54.59,111.37-122.19,221.51-156.29,256.17-4.34,4.37,79.38-117.38,129.19-222.03Z"/>
            <path class="cls-9" d="M38.1,2826.69c5.34,17.32,16.39,35.32,33.51,42.95,16.83,7.5,33.76.87,49.37-6.18,15.46,6.01,33.98,12.12,48.93,1.58,4.75,7.53,14.05,13.77,22.55,15.77,35.38,8.38,81.22-6.75,109.64-27.5,19.02-13.87,31.26-32.66,38.75-55.6,1.19-3.73,2.22-7.64,3.12-11.66,9.24,11.96,36.66,11.68,44.4-1.58,1.62,1.54,3.37,3.04,5.22,4.34,12.77,8.87,27.6,14.22,43.28,13.93,8.24-.12,21.02-1.65,26.82-8.67,3.28,1.84,6.72,3.31,10.24,4.2,9.84,2.55,20.77,4.56,30.98,3.44,7.31-.83,16.96-.97,23.7-4.17,3.43-1.62,6.37-3.47,9.12-5.42.12.06.31.19.53.23,17.99,4.25,38.85,8.09,52.93-4.84-.47,2.28-.94,4.56-1.28,6.85-5.56,32.94-3.31,66.36,23.61,89.45,11.31,9.74,27.57,16.19,42.59,14.19,13.43-1.76,29.7-3.28,38.07-15.61,6.87,6.74,15.99,11.4,27.17,14.71,19.02,5.62,44.16,6.79,64.45-.08,6.9,6.68,19.14,10.27,28.29,10.79,13.33.78,26.98-3.3,38.78-9.32,27.92-14.19,37.35-39.22,36.29-69.25-.94-28.62-15.4-56.58-34.85-76.99-6.5-6.84-14.3-11.83-23.86-10.32-5.59-26-10.21-52.01-13.83-78.1,15.55,14.29,35.88,25.57,51.59,35.63,16.61,10.59,46.05,27.48,66.91,23.64,3.15-.58,2.5-4.84-.63-4.84-13.4-.03-29.97-10.91-41.24-17.38-12.18-7.01-24.14-14.54-35.47-22.83-16.05-11.79-30.17-24.2-44.16-37.69-6.59-57.19-8.21-114.9-4.09-173.94,3.93-56.51,16.18-111.97,26.61-167.46,11.02-58.86,33.54-114.48,55.55-169.99,20.73-52.35,39.81-105.33,61.17-157.43,21.83-53.19,36.5-106.72,52.8-161.65,15.55-52.4,28.82-104.72,37.16-158.88,4.31-27.61,6.87-55.38,11.05-83.03,3.09-20.61-2.37-43.98,2.91-63.56.53-1.97-2.87-2.94-3.47-.98-7.03,22.69-6.25,47.61-11.34,70.9-5.9,27.43-8.18,55.54-13.27,83.17-10.37,56.22-26.17,109.98-41.28,164.99-31.35,114.36-79.47,223.15-121.72,333.88-40.35,105.67-68.79,220.48-71.51,334.19-1.19,47.26-1.03,94.38,2.69,141.43-.78,1.22-1.06,2.73-.5,4.17.31.84.75,1.64,1.09,2.48.47,4.98.87,9.98,1.41,14.96,3.15,30.57,7.68,64.51,16.49,96.27-.25.23-.44.4-.62.61-3.22-6.31-6.93-12.46-11.31-18.28-15.27-20.35-41.22-27.26-65.45-21.69-7.5,1.72-14.02,5.12-19.64,9.65-10.43,7.09-16.71,17.39-21.7,28.78-8.31-24.59-33.88-40.46-59.61-33.6-1.62.45-3.22,1.03-4.75,1.67,8.49-18.7,16.33-37.63,20.33-58.27,7.46-38.36,12.21-78.34,13.27-117.43,2.19-79.16-.56-159.43-2.81-238.64-2.34-82.08-9.9-162.8,7.31-243.93,7.59-35.99,17.58-74.87,32.07-108.67,7.56-17.56,16.02-34.8,29.1-49.01,6.72-7.37,12.68-13.27,15.77-23.01,1.47-4.7-2.78-11.43-8.34-8.51-10.52,5.61-20.33,12.49-30.6,18.55,19.42-27.7,57.4-97.07,81.07-161.43,6.96-18.88,10.27-37.97,15.24-57.4.47-1.86-2.44-2.56-3.12-.89-9.24,20.5-13.9,42.69-22.64,63.44-9.02,21.5-56.27,120.51-92.87,167.88-3.72,4.78,1.41,10.59,6.72,8.87,10.12-3.33,19.08-8.34,27.89-13.62-4.43,4.89-8.87,9.77-12.15,15.19-8.18,13.4-15.33,27.54-20.36,42.45-10.59,31.23-21.45,63.89-28.39,96.09-16.58,77.24-13.3,151.31-10.77,229.58,2.62,81.44,4.84,163.62,3.9,245.06-.06,6.43-.28,12.83-.47,19.27-7.31-12.96-17.89-24.68-27.79-34.22-27.45-26.32-57.52-49.64-84.41-76.55-26.45-26.51-53.77-56.83-63.67-94.18-10.4-39.36-9.62-91.34,17.68-124.6,1.84-2.28-1.34-5.67-3.59-3.7-14.9,13.27-23.26,32.51-27.7,52.56-7.34,12.48-11.84,25.72-16.3,39.56-3.75,11.48-7.27,27.68-5.4,1.37,2.34-33.15,9.27-66.47,9.96-99.63,1.09-57.43-22.67-116.65-40.97-170.19-22.7-66.61-49.15-131.78-74.45-197.47-13.4-34.83-27.64-69.42-43-103.36-10.21-22.62-24.58-52.34-23.61-79.02,13.4,18.41,28.89,35.46,45.87,51.15,4.4,4.11,9.93-.8,9.93-5.59,0-8.32-.56-16.88-1.28-25.42,4.34,7.67,9.21,14.99,13.83,21.53,15.46,21.88,52.21,51.37,49.34,48.14-12.87-14.66-23.86-26.39-36.6-43.72-12.9-17.53-26.23-35.72-28.98-58.13-.66-5.18-9.18-5.64-9.46-.16-.72,14.72.12,29.18.59,43.7-26.17-26.28-48.21-56.46-62.89-90.45-16.49-38.27-24.04-82.64-26.07-124.14-2.28-46.94.16-91.75,7.46-138.07,6.68-42.08,12.52-108.3,56.3-130.69,4.72-2.44,3.28-10.07-2.47-9.43-13.77,1.56-24.51,3.07-35.07,8.46,14.71-28.6,46.47-50.2,68.79-70.71,1.28-1.17-.12-3.01-1.59-2.14-31.91,19.36-64.73,47.79-80.66,82.53-1.94,4.18,3.18,7.68,6.71,5.23,7.5-5.11,15.05-8.18,22.98-10.21-23.76,23.22-36.29,62.74-41.84,92.6-9.55,52.04-15.8,103.02-13.9,155.96,1.72,48.84,8.15,100.15,27.73,145.38,7.18,16.66,16.15,32.3,26.29,47.1-5.06,16.71-1.25,38.97,3.34,54.41,6.62,22.19,15.89,44.36,25.29,66.08,31.7,109.51,24.11,228.63,32.57,341.22,4.47,59.5,1.65,119.6,2.75,179.18,1.15,59.52,1.84,118.95,4.65,178.4,2.9,62.27,2.37,124.52,2.65,186.86.16,34.8,4.22,72.9-3.12,107.17-3.97,39.39-22.89,69.42-57.27,89.06-24.58,14.05-56.02,29.18-84.13,16.16-9.62-4.44-13.3-14.3-15.02-24.19-4.15-24.73,1.44-50.4,7.31-74.46,3.56-14.29,8.49-28.92,17.27-40.97,11.65-15.97,27.98-21.27,42.19-5.34,7.46,8.38,12.8,18.61,18.42,28.28,1.37,2.36,8.87,18.03,12.84,17.18,10.46-2.34-21.58-52.04-25.11-55.82-7.96-8.67-19.02-16.86-31.51-14.16-12.02,2.59-20.77,13.72-28.48,22.55-24.39-22.58-51.18-14.32-73.66,6.18-18.36-4.23-40.63-9.91-56.71,3.34-12.4,10.16-19.67,26.9-22.86,44.78-3.43,19.1-2.25,39.53,2.47,54.66ZM396.12,2031.09c-17.68-15.08-41.97-24.72-62.58-31.46-1.44-21.02-2.87-42.03-4.18-63-2.44-37.4-5.28-75.07-12.18-111.89,8.62,21.92,16.61,44.05,23.86,66.48,10.37,32.26,27.82,61.94,38.97,93.98,5.28,15.24,10.8,30.52,16.11,45.89ZM794.11,2893.57c2.28-1.16,4.5-2.37,6.56-3.76,24.08-16.3,32.23-45.03,30.57-72.82-.5-7.96-1.41-15.9-2.81-23.65-4.43-14.88-8.43-32.23-4.53-38.61,3.72-7.45,13.87-6.56,19.45-1.94,8.9,7.32,15.93,16.8,21.8,26.67,9.96,16.8,15.49,34.65,16.33,54.21,1.12,25.98-11.02,48.45-35.19,59.13-16.99,7.51-35.75,9.41-52.18.78ZM686.82,2836.14c-1.25-23.67,2.37-45.54,10.77-67.53,4.12-10.87,8.03-20.63,13.74-29.24,8.71-11.12,19.64-19.81,34.88-21.39,26.73-2.76,48.4,10.85,60.39,34.83,1.09,2.23,2.25,4.62,3.28,7.06-.09.92.28,1.76.97,2.25,17.11,41.44,22.51,106.28-25.61,125.58-21.27,8.56-50.81,6.07-71.76-2.65-21.11-8.77-25.51-27.65-26.67-48.9ZM598.41,2795.68c1.65-9.09,3.75-18.1,6.4-26.96,5.12-17.3,13.24-34.02,29.35-43.61,12.3-7.39,30.35-3.61,41.13,5.12,8.46,6.85,13.33,15.91,18.77,25.06-2.53,6.31-4.87,12.8-7.37,19.17-10.24,25.53-10.96,55.01-5.78,81.74,1.56,7.93,4.31,14.46,8.02,19.92-.41.27-.84.59-1.25,1.09-8.52,10.85-29.51,14.71-42.69,12.15-11.55-2.23-24.7-8.56-32.26-17.99-17.99-22.44-19.55-48.25-14.33-75.7ZM435.12,2715.17c-.06-15.36-.94-32.98,5.22-47.42,6.71-15.74,25.04-28.84,42.69-26.15,33.76,5.14,56.18,34.4,62.83,66.16.31,1.52,2.69,1.73,2.84.05,1.78-14.72-3.53-29.23-12.65-41.52,8.53,6.1,17.36,12.22,23.64,20.16,7.9,9.96,14.3,20.44,20.64,31.45,1.81,3.11,6.12.05,5.18-2.95-16.15-50.09-60.64-71.96-103.58-96.29-46-26.17-94.59-60-133.75-96.35-1.53-49.6-4.12-99.16-4.75-148.83-.94-71.96-.87-143.99-2.12-215.92-.94-48.54-3.78-97.29-6.99-145.89,10.4,5.87,23.51,9.17,32.98,15.69,7.68,5.28,15.68,10.2,22.73,16.3,6.46,5.56,11.09,12.12,16.33,18.33,1.5,4.68,3.03,9.37,4.43,14.04,4.78,16.02,10.46,31.54,15.68,47.4,4.28,12.85,5.56,26.4,9.59,39.19,10.15,32.35,1.87,65.31.25,98.24-1,21.59-6.84,47.53,4.96,67.11.63,1,2.22.67,2.69-.31,6.9-15.64,10.43-32.66,16.11-49.04-.91,7.04-1.37,14.01-1.59,20.66-1,33.91,14.21,66.06,31.35,94.35-17.89-14.29-37.97-25.4-55.62-40.11-1.31-1.08-3.44.89-2.19,2.16,36,38.21,84.91,65.55,111.48,112.18,11.09,19.42,20.7,39.22,28.29,60.21,8.27,22.83,12.52,46.23,19.27,69.37,1,3.5,6.06,1.75,5.87-1.52-2.37-42.69-17.24-90.25-39.63-128.09,5.62,4.93,11.24,9.74,16.61,14.38,27.76,23.78,62.36,48.12,77.29,82.72-1.78,28.12-5.22,56.32-10.24,83.72-5.34,28.96-16.42,55.91-26.6,83.33-2.78,3.64-5.12,7.53-7.06,11.46-6.06,12.55-11.27,25.14-14.74,38.46-14.05,9.76-31.42,7.56-47.4,4.06,7.09-7.23,11.93-16.08,17.27-26.62,1.19-2.29-2.28-4.25-3.81-2.25-9.43,12.3-16.67,28.39-33.04,33.1-14.74,4.22-31.94,4.67-46.75.86-34.22-8.88-43.53-44.92-43.72-75.85ZM349.47,2597.6c.06-20.49-.31-40.92-.84-61.38,30.35,35.91,78.07,60.86,115.7,86.67,5.87,3.98,12.05,7.39,18.36,10.63-.69-.06-1.37-.24-2.06-.28-7.12-.63-14.33,1-21.05,4.03-.25-.44-.69-1-1.41-1.72-3.03-3.34-5.71-6.93-8.74-10.27-4.06-4.42-10.18-8.41-15.86-10.38-10.68-3.79-27.45-5.79-38.13-.66-6.53,3.18-12.21,7.29-17.08,12.1-3.87-10.71-18.8-21.36-28.98-18.61,0-3.39.03-6.76.09-10.13ZM387.41,2769.66c-15.33-19.13-22.08-48.36-23.45-72.37-1.37-25.12,4.03-54.9,26.45-70.29,9.68-6.65,22.92-8.84,34.57-6.29,9.4,2.04,23.95,9.82,28.57,19.74-6.06,3.7-11.46,8.57-15.4,14.05-10.21,14.21-11.34,33.57-11.34,50.48,0,20.42-1.19,44.09,10.06,62.25,4.87,7.85,11.74,16.03,19.74,22.2-4.44,3.2-12.84,4.72-16.93,4.76-7.62.08-15.4-.38-22.67-3.06-12.52-4.68-21.23-11.07-29.6-21.47ZM346.31,2772.75c3.31-23.3,2.87-49.12,2.81-70.36-.16-27.5.03-54.96.19-82.46,5.43-.67,10.71,1.11,14.96,4.65,2.06,1.69,4.71,3.86,6.25,6.06.56.86,1.06,1.72,1.62,2.59-12.96,16.72-18.3,39.27-17.11,60.75,1.06,18.99,4.53,40.46,12.55,57.91,3.97,8.65,8.65,18.05,14.83,25.93-1.19.7-2.37,1.34-3.59,1.95-4.09,1.58-9.09,3.31-13.46,2.29-7.56-1.64-11.99-6.78-18.89-9.31-.03-.02-.12-.02-.16-.03ZM106.99,2822.42c-4.15-18.3-6.5-39.38,1.34-57.12,12.65-28.76,44.31-65.53,76.35-39.47-10.02,20.16-15.9,45.09-18.55,58.54-4.47,22.72-7.68,45.62-1.25,67.51-24.89,6.09-51.56-1.2-57.9-29.46ZM52.62,2774.64c2.78-15.07,4.75-31.85,20.52-39.42,12.3-5.95,24.01-8.56,36.79-4.95-9.31,11.77-16.11,25.79-19.02,38.29-6.31,27.04-5.25,64.53,15.74,85.13.66.58,1.31,1.17,2,1.76-23.61,2.53-46.44-2.12-54.65-28.74-5.34-17.58-4.75-34.34-1.37-52.06Z"/>
          </g>
          <path class="cls-16" d="M806.35,842.73c-92.24,61.05-191.86,66.95-298.91,43.47-54.62-11.96-118.88-41.24-164.69-74.6-4.34-3.12-12.99-8.49-17.14-11.83,0-14.58,7.99-45.5,8.12-57.4.09-13.98.25-28.01.66-42.05.31-12.4.87-24.73,1.62-37.07,1.03-16.07,1.03-35.02,4.59-52.18,12.49,8.12,25.36,15.58,38.66,22.24,53.02,26.42,108.98,39.25,168.13,40.74,61.86,1.59,125.44.39,186.61-9.12,25.14-3.9,49.31-10.41,73.82-16.89,5.46-1.45,13.12-2.91,20.45-5.2,2.06,16.03-3.78,104.2-4.97,112.98-2.09,15.38-12.9,71.81-16.96,86.92Z"/>
          <path class="cls-7" d="M806.35,842.73c-92.24,61.05-191.86,66.95-298.91,43.47-54.62-11.96-118.88-41.24-164.69-74.6-4.34-3.12-12.99-8.49-17.14-11.83,0-14.58,7.99-45.5,8.12-57.4.09-13.98.25-28.01.66-42.05.31-12.4.87-24.73,1.62-37.07,1.03-16.07,1.03-35.02,4.59-52.18,12.49,8.12,25.36,15.58,38.66,22.24,53.02,26.42,108.98,39.25,168.13,40.74,61.86,1.59,125.44.39,186.61-9.12,25.14-3.9,49.31-10.41,73.82-16.89,5.46-1.45,13.12-2.91,20.45-5.2,2.06,16.03-3.78,104.2-4.97,112.98-2.09,15.38-12.9,71.81-16.96,86.92Z"/>
          <path class="cls-7" d="M806.35,842.73c-92.24,61.05-191.86,66.95-298.91,43.47-54.62-11.96-118.88-41.24-164.69-74.6-4.34-3.12-12.99-8.49-17.14-11.83,0-14.58,7.99-45.5,8.12-57.4.09-13.98.25-28.01.66-42.05.31-12.4.87-24.73,1.62-37.07,1.03-16.07,1.03-35.02,4.59-52.18,12.49,8.12,25.36,15.58,38.66,22.24,53.02,26.42,108.98,39.25,168.13,40.74,61.86,1.59,125.44.39,186.61-9.12,25.14-3.9,49.31-10.41,73.82-16.89,5.46-1.45,13.12-2.91,20.45-5.2,2.06,16.03-3.78,104.2-4.97,112.98-2.09,15.38-12.9,71.81-16.96,86.92Z"/>
          <path class="cls-7" d="M835.74,921.38c-18.49,20.91-42.72,35.46-68.04,46.61-93.96,41.33-205.26,48.18-303.84,19.25-48.59-14.22-96.34-37.97-130.59-76.19-14.02-15.65-24.14-33.21-30.82-51.81,12.52-28.87,19.39-52.21,20.49-74.27,0,0,100.83,103.52,192.86,124.77,0,0,140.02,39.11,224.37-16.1,84.44-55.18,100.36-78.76,100.36-78.76,0,0,6.53,21.23,19.95,56.51-4.09,18.27-11.96,35.49-24.73,49.99Z"/>
          <g>
            <path class="cls-10" d="M442.87,818.76c44.25,23.81,95.81,44.39,137.31,45.93,79.88,2.95,134.4-10.41,168.88-31.37,57.43-34.94,63.83-86.94,73.85-90.22,4.09-1.34,9.74,1.19,10.24,6.54,11.18,22.11,20.52,72.93,14.08,94.26-9.12,30.06-120.38,134.76-284.82,111.69-58.96-8.23-105.95-24.94-142.49-43.64,6.9-31.23,14.33-62.39,22.95-93.2Z"/>
            <path class="cls-10" d="M312.31,758.2c5.28-43.13,23.61-8.93,75.41,26.98,14.58,10.09,32.07,20.94,50.96,31.31-8.62,30.85-16.11,61.97-22.98,93.24-66.05-34.88-96.3-75.88-100.21-82.78-6.06-10.8-7.78-31.52-3.18-68.75Z"/>
            <path class="cls-18" d="M311.53,759.95c5.43-43.14,20.8-6.03,73.51,29.85,14.96,10.21,32.95,21.08,52.37,31.45-8.59,30.99-15.99,62.3-22.86,93.7-67.89-35.01-99.05-76.41-103.02-83.33-6.15-10.82-4.65-34.48,0-71.67Z"/>
            <path class="cls-19" d="M441.52,823.46c44.97,23.5,97.21,43.78,139.21,45.87,221.12,11.05,228.49-107.86,243.38-123.79,14.93-15.97,37.47,72.95,28.26,103.02-9.24,30.06-122.44,134.75-289.7,111.7-59.42-8.21-106.89-24.62-143.86-43.14,6.81-31.38,14.18-62.67,22.7-93.67Z"/>
            <path class="cls-19" d="M425.07,882.55c-2.62,9.87-5.87,19.6-9.49,29.21-42.06-14.19-72.73-33.4-92.65-49.04.4-4.59,6.84-64.39,15.8-87.76,3.22,2.14,44.97,27.4,97.9,45.64-3.5,20.72-6.12,41.64-11.55,61.95Z"/>
            <path class="cls-10" d="M338.72,774.95s44.28,26.06,73.6,36.5l12.71.69-39.75-17.28-40.59-19.91h-5.97Z"/>
            <path class="cls-12" d="M447.21,933.18c-1.72,5.46-59.4-23.08-58.24-26.17,1.16-3.14,20.98-96.79,22.55-103.72,1.53-6.93,58.18,20.83,57.33,26.4-.81,5.51-19.92,98.01-21.64,103.49Z"/>
            <path class="cls-5" d="M440.5,927.39c6.46-3.98,8.09-16.8,9.4-23.33,5.28-25.92,11.21-51.68,16.67-77.55,1.53,1.33,2.44,2.44,2.28,3.19-.81,5.51-19.92,98.01-21.64,103.49-.53,1.73-6.71.05-14.83-3.14,2.81-.31,5.5-1.08,8.12-2.65Z"/>
            <path class="cls-11" d="M451.27,863.82c-1.75,7.28-3.4,14.6-5.78,21.72-1.94,5.93-4.47,11.79-7.9,17.05-4.09,6.01-9.87,12.02-17.64,11.77-9.4-.28-18.21-8.67-21.55-17.04-3.56-9.02-1.91-20.16-.75-29.51,6-27.7,12.99-60.52,13.87-64.53,1.15-5.28,34.13,9.49,49.53,19.33-1.59,11.3-4.84,22.3-7.78,33.29-.69,2.62-1.34,5.29-2,7.92Z"/>
          </g>
          <path class="cls-21" d="M1205.84,1958.26c59.08,47.42,104.3,109.22,132.69,179.37,1.84,4.51-2.69,2.67-4.47.66-10.4-11.79-26.11-25.85-39.75-34.15-1.03-.63-4.87-6.54-1.9-5.53,11.71,4.01,21.39,13.12,30.51,21.25,1.19.9,2.31,1.86,3.4,2.84-5.09-10.63-10.12-21.22-15.9-31.54-27.01-48.21-63.98-93.96-104.92-130.8-.87-.8-1.41-3.5.34-2.11Z"/>
          <path class="cls-21" d="M1328.72,2187.25c52.87,80.77,61.7,195.55,22.76,284.97-1.16,2.64-5.87-3.11-5.37-5.18,21.45-91.82,27.35-194.67-20.24-279.38-1.84-3.29,1.5-2.45,2.84-.41Z"/>
          <path class="cls-21" d="M1750.63,2055.55c35.01,62.82,58.27,132.55,57.08,205.34-1.31,77.59-14.43,159.48-51.06,228.77-1.19,2.26-5.4-2.69-4.75-4.59,23.73-67.5,44.9-136.93,46.65-209.19,1.94-80.47-13.71-148.78-50.18-220.45-1.06-2.09,1.62-.98,2.25.12Z"/>
          <path class="cls-21" d="M881.02,2017.5c11.9-33.1,23.08-66.2,33.06-99.91,21.17-71.26,46.34-141.15,64.95-213.2,16.49-63.72,30.41-129.03,42.22-193.77,6.18-33.93,18.64-67.26,26.51-100.91,7.4-31.51,7.43-59.57,5.18-91.37-.12-1.77,2.87,1.09,3.03,2.19,3.47,25.92,6.49,50.52,4.37,76.8-2.81,34.88-14.49,71.17-24.2,104.64-19.17,66.08-27.92,135.51-44.12,202.42-17.55,72.32-42.88,142.19-64.3,213.33-19.83,65.83-46.05,133.53-75.34,195.61-.78,1.64-3.44-1.92-3.22-3.11,5.65-31.21,21.14-62.77,31.85-92.71Z"/>
          <path class="cls-21" d="M95.71,1704.79c.47-33.68,3.65-66.56,11.37-99.35.37-1.64,3.9,1.81,3.72,3.15-9.21,67.39-7.43,139.91-2.78,207.71,4.37,63.77,9.43,127.5,15.27,191.25.31,3.54-5.9-1.75-6.25-3.83-5.81-37.49-8.28-75.52-14.49-112.92-4.56-27.46-2.75-55.23-5.81-82.7-3.75-33.74-1.5-69.43-1.03-103.32Z"/>
          <path class="cls-21" d="M761.95,1472.62c9.34-17.02,16.96-34.41,21.8-52.79,9.56-27.84,12.09-57.55,3.4-89.89-.84-6.4-1.78-12.8-2.94-19.17.81,0,1.84.33,3,1.14,9.84,6.79,14.93,15.44,20.39,24.48,1.16-29.53-7.9-59.61-22.55-84.72-1.75-3.03-1-7.78,3.09-4.34,8.68,7.32,19.36,11.65,27.79,19.22,5.75,5.15,10.37,11.51,15.36,17.41.69-39.05-14.83-80.86-38.53-111.73,5.09,4.5,10.24,8.95,14.71,13.93,1.59,1.76,3.12,3.54,4.65,5.35,21.67,32.41,34.44,72.79,32.35,110.44-.22,4.09-4.5,2.97-6.74,1.11-6.31-5.18-10.99-11.68-15.93-18.16-6.18-8.1-13.93-13.77-21.83-19.53.5.78.97,1.64,1.41,2.64,11.49,26,19.14,57.68,16.61,86.3-.44,5.34-6.84.06-8.31-1.8-3.62-4.67-5.06-8.32-7.93-13.82-.66-1.09-1.37-2.12-2.06-3.18.22.64.53,1.25.72,1.89,9.15,23.42,8.65,48.85,4.71,73.21-6.18,38.21-24.89,71.18-49.87,99.13-8.09,5.98-16.64,11.49-25.33,16.89,11.4-17.58,21.98-35.66,32.01-54.01Z"/>
        </g>
        <g>
          <g>
            <path class="cls-16" d="M383.26,19.56c46.12-11.15,135.62-32.77,217.47-4.81,67.67,23.09,73.04.09,119.88-5.5,54.06-6.49,62.83,16.99,118.38,119.13,55.62,102.13,87.55,162.16,226.86,267.09,139.34,104.94,219.4,211.17,163.57,296.5-55.8,85.36-205.19,60.41-298.81-167.89-93.58-228.33-106.88-306.81-106.6-291.08.34,15.71,1.81,135.71,48.09,198.46,46.24,62.69,48.71,81.24,42.77,103.91-5.9,22.62-67.91,107.61-168.31,197.92,0,0,4.25,42.39-126.72,77.12-130.9,34.66-158.2,3.51-176.47-11.16,0,0-114.36,7.34-173.09-26.84-58.77-34.18-73.17-103.63-68.95-168.28,4.22-64.7-21.52-138.98-40.07-162.02-18.58-23.11-23.89-32.1-6.03,40.89,22.48,91.54,52.99,241.92,56.61,270.94,7.53,61.22,58.14,266.76-97.05,303.42C-41,1094.16-1.68,907.17,24.58,802.35c26.29-104.78,34.19-302.11,18.42-419.82-15.74-117.74,16.24-168.42,65.64-184.74,49.37-16.3,55.93-7.46,101.8-67.65,45.87-60.16,129.13-100.04,172.81-110.58Z"/>
            <path class="cls-7" d="M343.44,411.68c22.92-2.51,41.09-13.04,57.96-28.4,21.42-19.55,41.97-39.44,69.39-50.56,30.82-12.51,65.95-18.44,98.77-10.88,20.17,4.64,39.69,17.83,59.89,8.95,24.55-10.77,39.82-31.46,68.29-34.23,22.05-2.15,41.44,3.98,58.89,15.85-40.63-8.09-85.37.24-111.2,35.26-1.12,1.5-.78,4.36,1.53,4.59,21.64,2.16,39.47,23.2,51.15,39.82,9.77,13.91,19.7,29.92,23.7,46.9-23.45-25.72-45.59-56.55-78.38-70.56-38.35-16.36-77.47-12.19-117.54-5.23-42.03,7.31-82.81,26.81-112.79,57.46-15.11,15.44-29.2,32.71-39.25,51.95-7.12,13.65-10.27,27.96-13.71,42.58-5.22-22.92-.09-46.33,7.09-68.72.38-1.19-.44-2.56-1.5-3.09-37.5-19.33-79.1-13.76-107.92,16.46-4.25-40.36,56.99-45.03,85.63-48.14Z"/>
            <path class="cls-7" d="M24.58,802.35c26.29-104.78,34.19-302.11,18.42-419.82-12.21-91.56,4.4-142.55,35.6-168.38-12.4,18.53-19.3,40.75-20.23,65.94-1.25,33.59,4.25,67.45,8.02,100.72,4.4,38.8,9.12,77.58,12.58,116.49,5.09,57.26,11.02,117.51,2.56,174.73-4.84,32.62-11.02,65.03-15.99,97.65-6.84,44.84-12.74,90.28-12.74,135.73-.03,33.88,1.12,75.23,21.42,104.14,18.67,26.62,49.18,29.04,78.41,19.81,16.8-5.31,30.88-13.9,42.72-24.64-16.99,24.58-42.59,43.66-80.57,52.62C-41,1094.16-1.68,907.17,24.58,802.35Z"/>
            <path class="cls-7" d="M201.33,604.12c0-.27,0-.53.03-.8,9.4,31.79,20.58,65.83,41.66,90.61,7.93,9.34,18.14,18.25,30.98,19.11,15.4,1.03,28.17-7.65,32.23-22.75,5.9-22.19-1.37-48.75,8.84-69.59,8.43-17.17,22.39-29.48,36.44-41.78-7.25,24.56-8.52,49.62,9.59,70.93,26.17,30.82,78.47,41.78,116.95,38.18,36.88-3.47,70.14-20.69,85.78-55.91,6.93-15.66,10.21-32.16,10.12-48.62,26.73,37.94,60.96,72.35,109.01,64.16,58.71-10.01,113.48-71.57,111.42-132.31,20.08,26.83,17.77,61.42,7.71,92.6-.66,2.08,1.78,3.86,3.62,3.25,17.14-5.64,27.92-18.61,39-32.69,11.4-14.43,25.76-31.29,31.6-49.04,9.02-27.48-.16-55.93-14.05-80.14-19.99-34.88-44.53-71.24-52.28-111.31-7.74-40,1.56-80.03,1.94-120.19.09-7.93-.22-15.8-.87-23.65,66.76,74.48,98.29,176.56,137.3,266.79,29.63,68.47,67.29,137.06,124.6,186.35,41.41,35.6,99.12,75.27,149.7,33.33,13.36-11.1,20.89-25.23,24.42-40.58-1.15,17.99-6.78,35.37-17.64,51.93-55.8,85.36-205.19,60.41-298.81-167.89-93.58-228.33-106.88-306.81-106.6-291.08.34,15.71,1.81,135.71,48.09,198.46,46.24,62.69,48.71,81.24,42.77,103.91-5.9,22.62-67.91,107.61-168.31,197.92,0,0,4.25,42.39-126.72,77.12-130.9,34.66-158.2,3.51-176.47-11.16,0,0-114.36,7.34-173.09-26.84-58.77-34.18-73.17-103.63-68.95-168.28Z"/>
            <path class="cls-3" d="M271.27,223.15c5.59-9.41,13.33-17.91,25.14-17.46.78.02,1.34-.31,1.65-.78,5.87-.25,11.77.53,17.74,3.34,5.37,2.45,12.96,5.81,15.77,11.48,6.78,13.69-20.39,9.91-25.17,10.68-5.4.86-9.56,2.53-13.77,6.14-5.34,4.54-10.99,13.99-19.14,13.58-12.77-.69-5.68-21.14-2.22-26.98Z"/>
            <path class="cls-3" d="M569.06,137.76c4.65-4.23,9.96-7.65,15.36-9.85,7.21-2.94,15.64-5.03,23.33-2.5,9.34,3.12,24.86,19.86,8.49,25.17-8.09,2.58-16.49,3.45-23.64,8.35-5.09,3.48-10.9,8.99-17.08,10.38-10.27,2.31-14.8-4.14-13.3-13.41,1.15-7.03,3.5-13.12,6.84-18.14Z"/>
            <g class="cls-1">
              <path class="cls-2" d="M193.33,153.51c-5.5,9.41-10.49,19.11-15.71,28.67-6.46,11.71-12.46,23.69-16.58,36.35-2.34-11.52-5.19-23.51-11.06-33.27,17.14-6.31,29.98-15.96,55.49-48.67-.28.67-.53,1.42-.81,2.08-3.97,4.82-8.25,9.49-11.34,14.85Z"/>
              <path class="cls-2" d="M676.29,41.24c4.15,6.53,8.49,13.62,13.27,20.59-14.43-10.32-29.88-19.28-45.62-27.4-13.58-7.04-27.14-13.4-41.75-18-8.65-2.73-17.3-5.37-25.76-8.49,8.15,1.81,16.27,4.04,24.3,6.82,37.25,12.71,55.65,11.44,72.48,6.82-2.4,6.53-.63,13.68,3.09,19.66Z"/>
              <path class="cls-2" d="M740.43,716.95c3.78-18.14.78-33.73-21.2-30.79-17.33,2.33-33.85,9.74-51.4,11.94-18.05,2.3-34.85,1.09-52.68-2.06-8.31-1.51-19.36-3.92-27.04,1.16-5.97,3.89-9.31,9.82-11.59,16.19-1.56.76-3.03,1.73-4.47,2.75,16.68-32.32,15.86-76.29-7.06-102.88-11.27-13.04-25.45-22.09-41.25-28.75-17.21-7.21-36.35-12.57-51.21-24.14-24.61-19.11-40.35-48.82-39.13-79.46,21.73,13.47,46.06,24.12,70.73,30.15,13.37,3.25,31.17,11.62,43.25.75.56-.51,1.03-1.05,1.59-1.61.81.83,2.12,1.02,2.97-.23,16.36-23.86,39.47-41.22,59.17-62,9.56-10.02,20.2-22.58,26.89-36.36,7.49,13.93,15.02,29.23,16.02,45.25,1.25,19.36-5.96,36.54-17.46,51.93-16.83,22.66-33.1,42.27-38.41,70.7-7.24,38.91-2.44,97.47,46.25,103.77,2.84,1.84,6.03,3.36,9.55,4.39,56.15,16.77,97.49-48.84,122.1-88.79,12.61-20.45,30.85-49.92,22.89-75.13-5.62-17.49-17.99-30.95-31.82-42.77-2.66-2.94-5.43-5.73-8.56-8.38-2.78-2.36-7.74-7.23-13.18-10.84-2.65-2.79-5.34-5.53-8.18-8.1,25.23,14.35,55.27,28.32,68.51,54.43,18.49,36.47-7.53,72.1-24.73,103.17-15.11,27.32-28.01,56.99-16.96,88.4,1.78,5.18,4.28,8.59,7.24,10.76-7.96,7.6-16.21,15.24-24.73,22.9,0,0,1.22,12.97-19.73,30.46,8.02-11.71,20.02-32.82,13.61-46.81Z"/>
              <path class="cls-7" d="M346.31,702.77c-14.36-14.83-28.64-35.62-27.57-57.27.66-12.49,6.18-22.27,11.93-32.32-.03,1.03-.12,2.09-.12,3.08-5.62,18.92-4.5,39.67,9.99,55.16,10.87,11.65,25.61,19.2,38.94,27.57,13.96,8.77,27.95,17.55,42.69,24.87,25.98,12.85,57.96,24.55,87.37,18.1,4.87-1.03,9.46-2.64,13.8-4.61,5.03-1.17,9.9-2.78,14.52-5.14,4.28-2.22,8.28-5.01,11.96-8.24,1.78,2.87,3.56,5.76,5.43,8.57-4.15,4.42-8.87,8.31-14.24,11.46-14.55,5.64-30.01,8.38-45.97,9.26-15.96.87-33.91-1.55-49.5,2.14-26.64,6.25-5.68,32.68,4.84,47.64.47,1.06.97,2.11,1.44,3.11-3.19-2.47-5.9-4.86-8.46-6.9,0,0-22.98,1.47-53.65.01,17.89-6.95,37.41-21.67,27.39-42.44-14.27-29.51-49.56-32.1-70.79-54.05Z"/>
              <path class="cls-2" d="M197.64,989.73c21.7-57.83,22.83-119.04,13.55-179.46-10.84-70.64-28.57-140.04-40.94-210.41-5.15-29.18-9.87-57.88-16.67-86.73-5.56-23.41-11.96-49.22-8.06-73.53,1.59,9.09,4.81,23.03,9.71,43.39,22.48,91.54,52.99,241.92,56.61,270.94,6.25,50.81,42.13,200.87-34.38,271.47,8.24-10.52,15.11-22.39,20.17-35.68Z"/>
            </g>
            <path class="cls-2" d="M603.94,269.9c9.84,29.79,28.17,50.48,40.94,46.25,12.77-4.2,15.18-31.74,5.34-61.52-9.81-29.71-28.14-50.42-40.91-46.2-12.74,4.22-15.18,31.74-5.37,61.47Z"/>
            <g>
              <path class="cls-17" d="M608.34,261.5c8.03,26.18,22.17,45.2,31.45,42.47,9.27-2.75,10.3-26.2,2.28-52.41-8.06-26.25-22.17-45.26-31.48-42.52-9.27,2.73-10.3,26.23-2.25,52.46Z"/>
              <path class="cls-13" d="M612.96,229.18c3.59,7.92,9.77,13.05,13.74,11.38,3.93-1.7,4.25-9.46.66-17.41-3.59-7.93-9.74-13.02-13.71-11.35-4,1.65-4.25,9.46-.69,17.38Z"/>
            </g>
            <path class="cls-2" d="M313.49,365.75c9.81,29.78,28.14,50.46,40.91,46.25,12.77-4.2,15.18-31.74,5.37-61.52-9.84-29.73-28.13-50.42-40.91-46.22-12.8,4.23-15.21,31.76-5.37,61.49Z"/>
            <g>
              <path class="cls-17" d="M317.86,357.35c8.06,26.18,22.17,45.2,31.51,42.47,9.27-2.75,10.27-26.21,2.19-52.41-8.06-26.23-22.14-45.25-31.42-42.53-9.31,2.75-10.34,26.25-2.28,52.48Z"/>
              <path class="cls-13" d="M322.52,325.03c3.59,7.92,9.74,13.05,13.68,11.38,3.97-1.69,4.28-9.46.69-17.41-3.59-7.95-9.77-13.02-13.71-11.35-3.97,1.64-4.25,9.45-.66,17.38Z"/>
            </g>
            <g>
              <path class="cls-6" d="M728.13,119.83c13.33-2.47,29.51,9.63,39.94,16.88,13.71,9.59,27.32,26.03,36.38,40.02,21.52,33.21,32.26,73.23,46.5,109.86,15.21,39.32,28.01,79.9,40.97,119.99,12.99,40.5,29,79.86,40.15,121.07.28.94-1.25,1.42-1.62.51-7.21-18.56-13.36-37.6-19.83-56.41-6.33-18.31-15.32-35.44-21.54-53.74-12.8-37.63-26.48-75.01-38.88-112.76-11.49-35.12-24.92-70.04-39.03-104.22-6.9-16.66-18.67-30.96-30.51-44.25-6.68-7.48-13.74-14.65-22.17-20.03-8.62-5.51-19.7-14.14-30.29-13.83-1.78.06-1.78-2.75-.06-3.08Z"/>
              <path class="cls-6" d="M144.43,451.25c-3.28-19.33-3.47-38.92-5.5-58.35-4.25-39.81,1.13-82.53,12.12-120.82.34-1.11,1.9-.5,1.69.55-4.84,21.53-6,43-7.74,64.87-1.62,20.38-1.59,41.94,1.09,62.2,2.44,18.17,2.22,36.65,5.06,54.77,3.28,21.08,8.15,41.83,10.52,63.06.12,1.28-1.75,1.64-2,.36-4.59-22.36-11.43-44.2-15.24-66.66Z"/>
              <path class="cls-6" d="M674.23,791.08c20.11-12.88,45.94-22.8,59.18-43.83,7.24-11.44,10.62-22.97,11.68-36.49.87-11.57-2.37-22.76-2.25-34.18,0-.98,1.47-.98,1.65-.09.94,5.85,3.53,11.02,4.37,16.94,1.06,7.1,1.59,14.26,1.31,21.42-.59,12.76-4.68,25.28-11.8,35.83-14.27,21.23-39.47,35.18-63.64,42.11-1.06.31-1.28-1.22-.5-1.72Z"/>
              <path class="cls-6" d="M424.23,742.71c-.06-1.33,1.9-1.75,2.09-.34,4.65,28.13,15.99,54.74,41.06,69.89,24.36,14.66,53.49,10.98,80.69,8.23,2.5-.25,3.09,3.22.62,3.83-14.89,3.76-30.7,3.81-45.97,3.2-12.58-.45-24.83-2.59-35.79-9.12-12.34-7.31-22.98-15.5-29.95-28.23-7.68-14.13-11.87-31.62-12.77-47.45Z"/>
              <path class="cls-6" d="M358.55,488.71c4.43-19.05,9.87-36.8,18.46-54.52,8.27-17.13,20.48-31.56,34.32-44.45,7.71-7.09,15.74-14.07,23.86-20.56,7.28-5.87,16.3-9.26,24.55-13.52,19.58-10.12,40.53-16.05,61.89-21,38.25-8.92,81.82,1.41,116.41,18.33,36.13,17.69,61.92,50.07,79.54,85.45.66,1.33-1.34,2.7-2.22,1.45-21.95-31.71-44.59-62.2-79.79-80-33.66-16.99-75.44-25.11-112.57-17.32-19.45,4.11-37.88,10.4-55.99,18.63-18.21,8.32-32.38,19.05-47.34,32.16-15.27,13.43-27.76,28.87-36.94,47.03-8.12,16.07-13.49,33.08-19.99,49.84-1.09,2.76-4.84,1.23-4.18-1.51Z"/>
              <path class="cls-6" d="M245.73,484.01c1.72-29.76,21.55-59.38,49.65-69.82,25.29-9.4,58.55-7.04,78.69,12.54.9.9-.31,2.61-1.44,2.04-24.11-11.51-47.97-16.39-73.88-7.4-29.35,10.23-53.15,64.8-53.02,62.64Z"/>
              <path class="cls-6" d="M626.33,334.87c15.05-16.72,29.51-30.24,52.21-36.24,24.7-6.6,56.09-4.53,76.35,12.76,1.41,1.26.34,3.92-1.65,3.14-25.14-9.66-49.5-16.27-76.29-7.78-10.65,3.34-22.01,8.76-30.48,16.1-5.62,4.89-11.99,10.27-18.36,14.15-1.15.69-2.68-1.06-1.78-2.12Z"/>
              <path class="cls-6" d="M327.79,615.91c3.69-12.8,9.15-23.94,16.11-35.3,3.72-6.01,7.59-11.91,11.18-18,2.81-4.73,6.74-8.9,6.12-14.93-.16-1.17-2.75-9.15-3.4-11.23-.44-1.39,1.72-1.95,2.37-.75,4.31,8.56,6.68,13.27,4,22.45-3.09,10.2-11.74,20.53-17.02,29.82-10.84,18.91-23.51,50.21-13.49,71.43,10.31,21.86,38.63,33.47,57.77,45.75,20.98,13.46,46.03,23.81,69.48,31.9,26.39,9.12,52.96,7.6,76.01-8.62,21.14-14.93,34.29-39.43,44.19-62.5,10.59-24.65-1.47-49.93-9.96-73.71-8.37-23.42-17.86-46.34-24.39-70.37-.97-3.59,4.9-5.42,6.28-2,10.4,26.64,20.7,53.48,29.98,80.54,1.62,4.84,3.22,9.66,4.75,14.55.16.17.25.31.34.53,2.75,7.62,5.28,15.29,8.81,22.59,4.15,8.65,11.21,14.58,17.71,21.37,11.99,12.44,27.2,22.75,43.72,27.87,19.8,6.12,41-8.12,55.46-19.69,13.65-10.9,23.76-24.2,33.76-38.3,10.46-14.79,22.52-27.59,31.54-43.47,8.71-15.38,19.74-38,18.46-56.05-1.25-18.27-18.21-28.82-29.63-40.91-11.62-12.35-25.08-22.48-33.85-37.25-.97-1.61,1.56-3.12,2.72-1.75,12.9,15.74,29.6,27.85,43.81,42.38,11.59,11.87,24.76,22.05,24.2,40.74-.56,18.1-9.37,37.89-17.8,53.55-11.02,20.58-26.7,37.3-39.56,56.68-18.67,28.07-55.71,59.8-91.78,51.49-16.33-3.81-33.04-15.71-44.31-27.87-5.34-5.78-12.52-11.07-16.61-17.96-.63,7.99-3.78,15.79-6.93,23.12-9.71,22.7-22.95,44.78-42.35,60.74-10.68,8.73-21.67,12.96-34.54,16.91-12.21,3.76-24.26.86-36.54-.33-12.05-1.22-23.95-7.15-35.16-11.41-12.65-4.78-25.33-11.29-37.04-17.99-22.98-13.21-47.84-24.64-66.26-44.39-16.65-17.83-14.37-37.89-8.12-59.64Z"/>
              <path class="cls-14" d="M288.7,206.12c13.33-4.61,37.82.42,42.81,15.58.41,1.36-.38,2.84-1.91,2.73-5.46-.37-8.93-3.78-14.08-5.54-6.25-2.11-13.49-.69-19.71.86-12.49,3.11-14.83,19.67-21.26,28.45-1.81,2.45-5.34,2.08-6.72-.59-8.12-15.25,6-36.32,20.86-41.49Z"/>
              <path class="cls-14" d="M582.83,125.07c12.49-7.71,36.94-10.46,43.34,6.7,1.81,4.79-2.16,8.65-6.93,7.56-4.72-1.09-8.31-3.72-13.15-4.67-8.24-1.58-16.3,2.33-21.55,8.46-5.84,6.75-9.06,15.24-14.46,22.16-1.37,1.81-4.15,1.23-4.65-1-3.12-13.72,5.5-31.85,17.39-39.21Z"/>
              <path class="cls-6" d="M537.7,0c32.13.08,60.05,11.38,89.22,23.9,16.64,7.14,34.69,14.13,49.25,25.22,14.77,11.3,27.95,24.44,39.25,39.22,1,1.3-.75,2.72-1.87,1.62-12.62-12.94-26.04-25.4-40.72-36.07-15.46-11.26-33.79-18.41-51.21-25.93-14.93-6.37-28.48-12.76-44.37-16.47-7.65-1.81-14.18-5.7-22.33-6.87-6.21-.91-11.4-1.5-17.49-3.33-.81-.24-.44-1.3.28-1.3Z"/>
              <path class="cls-6" d="M159.67,223.81c3.97-18.42,9.31-35.13,19.17-51.17,10.21-16.55,20.92-31.96,33.76-46.73.62-.73,1.81.03,1.31.91-8.71,13.99-19.45,27.23-26.92,41.77-4.78,9.23-10.52,17.72-14.18,27.46-3.53,9.46-6.56,19-10.46,28.31-.53,1.44-3.03,1.03-2.69-.55Z"/>
            </g>
            <path class="cls-4" d="M606.53,685.11c-9.27,4.96-19.08,5.29-28.1,1.8,4.68-11.35,8.37-23.23,9.03-35.02.37-6.34.03-12.57-.78-18.74,6.21,9.62,14.21,18.14,22.52,25.98,3.9,3.72,7.93,7.26,12.05,10.63-2.97,6.25-7.81,11.65-14.71,15.35Z"/>
            <path class="cls-20" d="M452.21,524.95c22.27,19.63,50.52,33.98,79.85,38.36,26.36,3.98,51.65-8.04,68.14-28.65,9.21-11.54,18.17-25.46,24.76-38.64,6.15-12.24,13.4-23.83,17.46-36.97,3.59-11.65,8.09-25.75,1.75-37.36-5.65-10.45-13.27-19.11-24.67-23.42-20.08-7.51-41.25-5.31-61.83-1.36-23.67,4.58-47.25,10.7-69.48,20.24-19.17,8.24-40.1,19.61-50.4,38.71-14.14,26.26-7.21,49.98,14.43,69.1Z"/>
            <path class="cls-15" d="M472.53,510.02c3.4-6.01,11.8-4.71,17.42-3.33,16.11,4,33.88,23.17,38.57,38.54.72,2.26-2.34,3.15-3.56,1.48-6-8.2-12.87-16.1-20.83-22.47-3.65-2.97-7.37-5.64-11.49-7.96-2-1.14-13.65-5.61-11.4-.42,1.16,2.7-1.31,5.76-4.22,4.21-3.37-1.72-6.78-6.06-4.5-10.06Z"/>
            <path class="cls-15" d="M593.54,470.44c3.12-4.95,7.46-13.82,14.77-12.79,6,.87,9.18,6.89,10.55,12.12.91,3.65-4.56,5.45-6.59,2.69-2.78-3.89-5.15-7.88-9.24-2.01-4.03,5.79-6.71,12.26-9.84,18.55-5.4,10.96-9.96,25.92-9.84,38.27.06,2.8-3.62,3.23-4.31.5-4.37-18.07,5-42.23,14.49-57.32Z"/>
            <path class="cls-8" d="M458.48,479.57c16.86-.61,32.1,11.04,43.44,22.56,14.14,14.5,39.69,37.07,56.68,14.13,8.9-11.98,9.59-28.31,14.4-42.02,5.59-15.96,19.64-36.6,39.78-32.41,15.27,3.12,20.58,19.49,21.67,36.11-3.06,6.04-6.4,11.94-9.49,18.06-6.59,13.18-15.55,27.11-24.76,38.64-16.49,20.61-41.78,32.63-68.14,28.65-29.32-4.39-57.58-18.74-79.85-38.36-5.71-5.07-10.4-10.43-13.96-16.11-1.37-14.13,3.28-28.64,20.24-29.26Z"/>
            <g class="cls-23">
              <path class="cls-13" d="M464.26,450.63c5.81-9.98,16.52-15.64,26.79-21.19,23.48-12.6,52.87-19.05,79.41-20.25,14.68-.63,28.1,2.25,42.03,5.29,1.56.38,1.12,2.47-.5,2.33-12.68-1.11-24.76-2.78-37.6-2.53-25.17.52-53.37,7.07-75.94,18.32-11.71,5.82-20.61,12.68-30.29,20.91-2.06,1.73-5.06-.84-3.9-2.87Z"/>
              <path class="cls-13" d="M451.89,466.49c.41-1.78,1.87-3.28,2.59-4.97.87-2.12,2.59-3.9,4.06-5.7,1.41-1.72,4.47,0,3.37,1.84-1.19,2.03-2.44,3.92-3.28,6.01-.75,1.9-1.9,4.03-4.15,4.78-1.37.45-2.94-.58-2.59-1.97Z"/>
            </g>
            <path class="cls-16" d="M581.42,792.69c16.77-3.4,32.91-10.43,48.31-17.88.94-.42,1.87-.76,2.84-1.2,33.88-15.47,72.85-31.88,96.56-62.05,1.06,1.22,1.87,2.9,1.56,3.84-25.89,74.79-118.41,90.11-190.27,87.53,13.83-2.78,27.48-6.2,41-10.24Z"/>
          </g>
          <path class="cls-21" d="M741.31,17.97c43.56,16.72,65.73,71.56,86.56,109.37,29.39,53.34,64.92,104.52,100.67,153.73,39.91,54.9,93.56,96.6,145.27,139.91,44,36.83,88.75,66.06,118.85,116.4,2,3.31-4.22.69-5.25-.75-35.97-49.98-86.09-78.34-132.22-117.07-42.19-35.44-84.62-70.76-122.13-111.28-34.03-36.83-55.58-85.19-82.53-126.95-15.21-23.54-28.54-48.15-41.97-72.71-16.89-30.87-33.91-71.26-66.86-88.17-1.16-.59-2.9-3.43-.41-2.48Z"/>
          <path class="cls-21" d="M564.59,365.53c23.51.66,47.68-2.47,69.7,9.04,27.11,14.18,45.25,31.37,62.95,56.1,1.81,2.53-2.91,1.2-3.81.36-19.83-18.39-34.73-37.47-59.4-50.53-21.36-11.27-44.65-9.9-67.67-12.65-.78-.09-3.22-2.37-1.78-2.33Z"/>
          <path class="cls-21" d="M366.21,33.73c53.9-28.67,121.57-28.4,180.21-19.17,50.34,7.92,107.11,29.03,143.08,66.65,2,2.09-1.53,1.73-2.69.7C608.06,10.48,467.48,7.5,371.73,38.41c-1.97.64-7.99-3.37-5.53-4.68Z"/>
          <path class="cls-21" d="M171.5,984.96c17.92-65.61,10.59-134.79,5-201.65-5.78-69.36-16.33-138.8-26.61-207.65-.25-1.67,4.62.44,4.93,1.98,7.15,37.22,18.42,73.42,25.89,110.5,6.93,34.35,10.49,69.73,15.11,104.47,8.49,64.23,13.15,137.07-16.46,196.79-1.25,2.48-8.56-2.03-7.87-4.45Z"/>
        </g>
      </g>
    </g>
  </g>
</svg>