<?xml version="1.0" encoding="UTF-8"?>
<svg id="Layer_1" data-name="Layer 1" xmlns="http://www.w3.org/2000/svg" viewBox="0 0 5001.02 602.57">
  <defs>
    <style>
      .cls-1 {
        fill: #cec6ba;
        stroke: transparent;
        stroke-miterlimit: 10;
      }
    </style>
  </defs>
  <path class="cls-1" d="M.5,108.35c.06-142.47,360.06-142.47,360.06,0,0,23.34,9.66,42.81,25.81,58.44,14.64,14.17,34.63,25.18,57.59,33.04,29.83,10.22,64.69,15.13,99.41,14.77,89.05-.92,177.18-36.53,177.18-106.26,0-140.94,358.47-144.57,358.47-.29s360,140.39,360-.13,360-144.23,361.53.09,361.53,143.59,361.53-.04,356.94-143.19,358.47.59,360,140.5,360-.33,361.53-144.11,361.53,0,358.47,145.43,358.47,0,360-140.21,360,.42,360,145.84,360,0,363.06-142.16,363.06,0,319.7,142.78,316.87,0,.02,493.41.02,493.41H.5V108.35Z"/>
</svg>